<?xml version="1.0" encoding="UTF-8"?><svg id="a" xmlns="http://www.w3.org/2000/svg" width="1049.01" height="1049.8" xmlns:xlink="http://www.w3.org/1999/xlink" viewBox="0 0 1049.01 1049.8"><defs><linearGradient id="b" x1="1128.05" y1="1026.07" x2="517.54" y2="1627.07" gradientTransform="translate(0 1617.8) scale(1 -1)" gradientUnits="userSpaceOnUse"><stop offset=".38" stop-color="#914d36"/><stop offset=".47" stop-color="#7a4531"/><stop offset=".58" stop-color="#633c2d"/><stop offset=".73" stop-color="#513c35"/><stop offset=".8" stop-color="#513c35"/></linearGradient><linearGradient id="c" x1="-292.75" y1="1271.53" x2="481.18" y2="647.4" gradientTransform="translate(0 1617.8) scale(1 -1)" gradientUnits="userSpaceOnUse"><stop offset=".37" stop-color="#31eb34"/><stop offset=".47" stop-color="#31eb34"/><stop offset=".65" stop-color="#a3eb36"/><stop offset=".75" stop-color="#f8f739"/><stop offset=".86" stop-color="#f8f74b"/></linearGradient><linearGradient id="d" x1="204.26" y1="938.29" x2="494.89" y2="1859.31" gradientTransform="translate(0 1617.8) scale(1 -1)" gradientUnits="userSpaceOnUse"><stop offset=".17" stop-color="#36eb39"/><stop offset=".21" stop-color="#61fa82"/><stop offset=".25" stop-color="#61faca"/><stop offset=".29" stop-color="#61fafa"/><stop offset=".35" stop-color="#61d1fa"/></linearGradient><linearGradient id="e" x1="117.12" y1="734.96" x2="906.39" y2="914.27" gradientTransform="translate(0 1617.8) scale(1 -1)" gradientUnits="userSpaceOnUse"><stop offset=".23" stop-color="#f8c74b"/><stop offset=".45" stop-color="#f8c74b"/><stop offset=".63" stop-color="#ff6450"/><stop offset=".68" stop-color="#ff5650"/><stop offset=".72" stop-color="#ff5050"/></linearGradient><linearGradient id="f" x1="598.45" y1="634.18" x2="928.47" y2="1356.66" gradientTransform="translate(0 1617.8) scale(1 -1)" gradientUnits="userSpaceOnUse"><stop offset=".43" stop-color="#ff5050"/><stop offset=".47" stop-color="#ff5093"/><stop offset=".54" stop-color="#ff50d0"/><stop offset=".59" stop-color="#d650ff"/><stop offset=".64" stop-color="#ab40f2"/></linearGradient><linearGradient id="g" x1="378.48" y1="1311.06" x2="527.35" y2="1374.36" gradientTransform="translate(0 1617.8) scale(1 -1)" gradientUnits="userSpaceOnUse"><stop offset="0" stop-color="#61d1fa"/><stop offset=".21" stop-color="#61d1fa"/><stop offset=".38" stop-color="#61d1fa"/><stop offset=".58" stop-color="#61d1fa"/><stop offset="1" stop-color="#409ff2"/></linearGradient></defs><path d="M571.81,396.8l140.5-296.3c18.1-37.9,49.4-68.5,91-87.6C825.21,4.6,847.21.4,868.71,0h2.7c47.5-.1,92.1,18.3,125.7,51.8,17,17,30.1,36.8,38.9,58.5,1.8,4.3,3.3,8.7,4.8,13.1,12,38,11.2,80.6-4.8,122.4-19,41.4-49.7,72.8-87.5,90.9l-296.4,140.4c-15.1,7.7-32.2,8.5-47.4,2.9-8-2.9-15.5-7.6-21.8-13.9l-.1-.1c-18.3-18.3-22.7-46.1-11-69.2h0Z" fill="url(#b)"/><path d="M477.21,653l-140.5,296.3c-18.1,37.9-49.4,68.5-91,87.6-21.9,8.3-43.9,12.5-65.4,12.9h-2.7c-47.5.1-92.1-18.3-125.7-51.8-17-17-30.1-36.8-38.9-58.5-1.8-4.3-3.3-8.7-4.8-13.1-12-38-11.2-80.6,4.8-122.4,19-41.4,49.7-72.8,87.5-90.9l296.4-140.5c15.1-7.7,32.2-8.5,47.4-2.9,8,2.9,15.5,7.6,21.8,13.9l.1.1c18.3,18.4,22.7,46.2,11,69.3h0Z" fill="url(#c)"/><path d="M445.51,500.6c0,.1,0,.2-.1.2-4.2,13.2-16.2,22.2-30,22.5l-202.6,9.3c-11.8.5-23.5-1-35-4.5-26.7-8.2-48.6-26.2-61.7-50.9-.3-.6-.6-1.1-.9-1.7-12.3-24.2-14.7-51.8-6.8-77.9,4.7-15.3,12.6-29,23.2-40.4,7.9-8.5,17.2-15.7,27.7-21.3,15.3-8.1,32-12.3,48.9-12.3,10.2,0,20.6,1.5,30.7,4.6,11.4,3.5,22,8.8,31.5,15.8l162.8,121c6.8,4.8,11.3,11.8,12.9,19.5,1.2,5.2,1,10.7-.6,16.1h0Z" fill="url(#d)"/><path d="M572.71,933.7c10.3,5.4,21.2,9.1,32.3,10.9,15.6,2.5,31.7,1.5,47.3-3.3,10.1-3.1,19.5-7.6,27.8-13.2,13.7-9.2,24.8-21.5,32.7-35.6,2.5-4.4,4.7-9.1,6.5-13.8,8-21,9.4-44.7,2.3-67.8-3.5-11.4-8.8-22-15.8-31.5l-121-162.8c-7.9-11.3-22-16.2-35.2-12.3-.1,0-.3.1-.4.1-5.2,1.6-9.8,4.4-13.4,8.1-5.7,5.7-9,13.5-9.2,21.9l-5.3,114.6-4.1,88c-.5,11.8,1,23.5,4.5,35,8.3,26.7,26.3,48.6,51,61.7h0Z" fill="url(#e)"/><path d="M941.51,652.2c-4.9,16.1-13.4,30.2-24.3,41.6-26.5,27.6-67.2,39.8-106.2,27.8-11.4-3.5-22-8.8-31.5-15.8l-95.3-70.8-67.5-50.2c-6.3-4.4-10.6-10.7-12.5-17.7-1.5-5.5-1.6-11.5.1-17.3,0-.2.1-.4.2-.6,4.1-13.3,16.2-22.4,30-22.7l47.6-2.2,155-7.1c11.8-.5,23.6,1,35,4.5,26.7,8.2,48.6,26.2,61.7,50.9.3.5.6,1.1.8,1.6,12.4,24.3,14.9,51.9,6.9,78h0Z" fill="url(#f)"/><path d="M344.01,270.4l121,162.8c8,11.4,22.3,16.3,35.6,12.2.3-.1.5-.2.7-.2,5.7-1.9,10.7-5.3,14.3-9.7,4.7-5.5,7.4-12.5,7.6-20.1l9.3-202.6c.5-11.8-1-23.6-4.5-35-8.2-26.7-26.2-48.6-50.9-61.7-10.3-5.5-21.3-9.1-32.5-10.9-15.6-2.5-31.6-1.4-47.1,3.3-27,8.2-48.3,26.5-60.9,49.5-13.2,23.9-17,52.8-8.5,80.9,3.6,11.4,9,22,15.9,31.5h0Z" fill="url(#g)"/><g id="h" opacity=".8"><g id="i"><g id="j"><g id="k"><path id="l" d="M827.96,218.78h-88.26c19.1,38.2,50.06,69.17,88.26,88.26v-88.26Z" fill="#ff9e9e"/></g><g id="m"><path id="n" d="M814.03,211.43v-21.28s-53.11-11.14-70.93-14.19c-11.86-2.03-26.54,7.2-36.98,17.57-9.95,9.88-9.95,25.91,0,35.79,10.45,10.37,25.12,19.61,36.98,17.58,17.83-3.05,70.93-14.18,70.93-14.18v-21.29Z" fill="#ffe690"/></g><g id="o"><path id="p" d="M835.31,232.71h21.28s11.13,53.11,14.19,70.93c2.03,11.86-7.2,26.54-17.57,36.98-9.88,9.95-25.91,9.95-35.79,0-10.38-10.45-19.61-25.12-17.58-36.98,3.05-17.83,14.18-70.93,14.18-70.93h21.29" fill="#ffe690"/></g><g id="q"><path id="r" d="M857.38,130.53c-16.25,16.25-42.59,16.25-58.84,0s-16.25-42.59,0-58.84,42.59-16.25,58.84,0,16.25,42.59,0,58.84"/></g><g id="s"><path id="t" d="M975.06,248.2c-16.25,16.25-42.59,16.25-58.84,0s-16.25-42.59,0-58.84,42.59-16.25,58.84,0,16.25,42.59,0,58.84"/></g><g id="u"><path id="v" d="M857.38,233.49c-12.18,12.18-31.95,12.18-44.13,0s-12.18-31.95,0-44.13c12.18-12.18,31.95-12.18,44.13,0s12.18,31.95,0,44.13"/></g></g></g></g><path d="M498.02,225.54l-6.58-1.53c-2.92-.67-5.43-2.32-7.19-4.56s-2.8-5.04-2.8-8.03c0-6.01,4.14-11.23,9.99-12.59l6.58-1.53c5.14-1.19,8.15-6.55,6.46-11.56-1.18-3.52-2.6-6.92-4.23-10.2-2.35-4.71-8.25-6.36-12.73-3.58l-5.74,3.57c-5.1,3.18-11.72,2.41-15.96-1.83h0c-4.24-4.24-5.01-10.86-1.83-15.96l3.57-5.74c2.78-4.46,1.13-10.38-3.58-12.73-3.28-1.64-6.68-3.05-10.2-4.23-5-1.67-10.37,1.32-11.56,6.46l-1.53,6.58c-.67,2.92-2.32,5.43-4.56,7.19-2.23,1.77-5.04,2.8-8.03,2.8-6.01,0-11.23-4.14-12.59-9.99l-1.53-6.58c-1.19-5.14-6.55-8.15-11.56-6.46-3.52,1.18-6.92,2.6-10.2,4.23-4.71,2.35-6.36,8.25-3.58,12.73l3.57,5.74c3.17,5.1,2.41,11.72-1.83,15.96h0c-4.24,4.24-10.86,5.01-15.96,1.84l-5.74-3.57c-4.46-2.78-10.38-1.13-12.73,3.58-1.64,3.28-3.05,6.68-4.23,10.2-1.67,5,1.32,10.37,6.46,11.56l6.58,1.53c2.92.67,5.43,2.32,7.19,4.56,1.77,2.23,2.8,5.04,2.8,8.03,0,6.01-4.14,11.23-9.99,12.59l-6.58,1.53c-5.14,1.19-8.15,6.55-6.46,11.56,1.18,3.52,2.6,6.92,4.23,10.2,2.35,4.71,8.25,6.36,12.73,3.58l5.74-3.57c5.1-3.18,11.72-2.41,15.96,1.83h0c4.24,4.24,5.01,10.86,1.83,15.96l-3.57,5.74c-2.78,4.46-1.13,10.38,3.58,12.73,3.28,1.64,6.68,3.05,10.2,4.23,5,1.67,10.37-1.32,11.56-6.46l1.53-6.58c.67-2.92,2.32-5.43,4.56-7.19,2.23-1.77,5.04-2.8,8.03-2.8,6.01,0,11.23,4.14,12.59,9.99l1.53,6.58c1.19,5.14,6.55,8.15,11.56,6.46,3.52-1.18,6.92-2.6,10.2-4.23,4.71-2.35,6.36-8.25,3.58-12.73l-3.57-5.74c-3.17-5.1-2.41-11.72,1.83-15.96h0c4.24-4.24,10.86-5.01,15.96-1.84l5.74,3.57c4.46,2.78,10.38,1.13,12.73-3.58,1.64-3.28,3.05-6.68,4.23-10.2,1.67-5-1.32-10.37-6.46-11.56h0ZM428.09,238.28c-14.83,0-26.85-12.02-26.85-26.85s12.02-26.85,26.85-26.85,26.85,12.02,26.85,26.85-12.02,26.85-26.85,26.85Z" isolation="isolate" opacity=".4"/><g opacity=".4"><path d="M749.9,595.2c.8-2.55,2.13-4.51,4.31-6.06,10.93-5.4,21.62-11.29,32.51-16.75,3.49-1.75,11.61-6.42,14.81-7.22,9.45-2.38,15.46,9.63,7.97,15.88-11.82,6.26-23.71,12.43-35.66,18.44-.84.42-1.79.86-2.71,1.05,6.02,13.03,13.11,25.56,19.31,38.53,2.84,9.61-9.06,16.17-15.61,8.59-7.29-14.06-14.79-28.07-21.79-42.27-1.2-2.43-2.45-4.84-3.27-7.43l.13-2.76h0Z"/><path d="M802.11,676.32c-.38.01-.85,0-1.22-.06-6.81-.91-10.43-8.67-6.47-14.39l67.35-91.26c7.3-8.38,20.02.14,14.83,10.23l-67.94,92.23c-1.36,1.76-4.38,3.18-6.55,3.26h0Z"/><path d="M920.86,645.59c-.11.78.03,1.71-.12,2.45-.48,2.46-2.59,5.29-4.82,6.46l-46.27,23.51c-10.1,2.97-16.67-10-7.68-16.21,4.8-3.32,13.01-6.83,18.47-9.64,6.31-3.24,12.71-6.34,19.08-9.46l-19.31-38.52c-2.82-9.89,9.77-16.21,15.87-7.96,7.32,15.03,16.33,29.91,23.2,45.1.64,1.42,1.13,2.79,1.58,4.27h0Z"/></g></svg>